<svg xmlns="http://www.w3.org/2000/svg" version="1.0" width="100.000000pt" height="100.000000pt" viewBox="-3 -3 106 106" preserveAspectRatio="xMidYMid meet" transform="matrix(1, 0, 0, 1, 0, 0)"><g id="deeditor_bgCarrier" stroke-width="0">
    <rect id="dee_c_e" x="-3" y="-3" width="106" height="106" rx="0" fill="#ffffff" strokewidth="0"/>
  </g>

<g transform="translate(0.000000,100.000000) scale(0.100000,-0.100000)" fill="#000000" stroke="none">
<path d="M745 952 c-39 -26 -115 -82 -169 -125 -94 -74 -132 -91 -161 -69 -6 4 -32 33 -59 65 -50 59 -91 81 -107 56 -15 -25 -10 -77 15 -133 13 -29 27 -68 31 -86 9 -40 -3 -53 -146 -166 -58 -45 -113 -94 -123 -108 -21 -33 -21 -109 0 -130 8 -9 25 -16 36 -16 12 0 96 50 187 111 l165 111 24 -29 c13 -15 56 -68 97 -118 81 -100 204 -223 279 -279 45 -33 54 -36 117 -36 52 0 69 3 69 14 0 8 -39 47 -86 87 -95 81 -210 213 -298 343 -84 126 -85 123 94 263 230 181 260 216 230 274 -9 15 -21 19 -68 19 -51 0 -64 -5 -127 -48z" fill="#000000"/>
</g>
</svg>